<svg width="21" height="19" viewBox="0 0 21 19" fill="none" xmlns="http://www.w3.org/2000/svg">
<path d="M0 2.50003C0 1.67034 0.670312 0.5 1.5 0.5H19.5C20.3297 0.5 21 1.67034 21 2.50003C21 3.32972 20.3297 4.5 19.5 4.5H1.5C0.670312 4.5 0 3.32972 0 2.50003Z" fill="#171827"/>
<path d="M1.5 0.5C0.670312 0.5 0 1.67034 0 2.50003C0 3.32972 0.670312 4.5 1.5 4.5H19.5C20.3297 4.5 21 3.32972 21 2.50003C21 1.67034 20.3297 0.5 19.5 0.5H1.5Z" fill="#171827"/>
<path d="M1.5 15C0.670312 15 0 16.1704 0 17.0001C0 17.8298 0.670312 19 1.5 19H19.5C20.3297 19 21 17.8298 21 17.0001C21 16.1704 20.3297 15 19.5 15H1.5Z" fill="#171827"/>
<path d="M1.5 8C0.670312 8 0 9.17034 0 10C0 10.8297 0.670312 12 1.5 12H19.5C20.3297 12 21 10.8297 21 10C21 9.17034 20.3297 8 19.5 8H1.5Z" fill="#171827"/>
</svg>
