<svg width="31" height="30" viewBox="0 0 31 30" fill="none" xmlns="http://www.w3.org/2000/svg">
<path d="M13.0389 3.09445L10.9444 3.87778C10.7778 3.9389 10.6667 4.10001 10.6667 4.27778C10.6667 4.45556 10.7778 4.61667 10.9444 4.67778L13.0389 5.46112L13.8222 7.55556C13.8833 7.72223 14.0444 7.83334 14.2222 7.83334C14.4 7.83334 14.5611 7.72223 14.6222 7.55556L15.4056 5.46112L17.5 4.67778C17.6667 4.61667 17.7778 4.45556 17.7778 4.27778C17.7778 4.10001 17.6667 3.9389 17.5 3.87778L15.4056 3.09445L14.6222 1.00001C14.5611 0.83334 14.4 0.722229 14.2222 0.722229C14.0444 0.722229 13.8833 0.83334 13.8222 1.00001L13.0389 3.09445ZM2.56111 22.6889C1.52222 23.7278 1.52222 25.4167 2.56111 26.4611L4.48333 28.3833C5.52222 29.4222 7.21111 29.4222 8.25556 28.3833L29.4389 7.19445C30.4778 6.15556 30.4778 4.46667 29.4389 3.42223L27.5167 1.50556C26.4778 0.466673 24.7889 0.466673 23.7444 1.50556L2.56111 22.6889ZM26.9222 5.31112L21.0889 11.1445L19.7944 9.85001L25.6278 4.01667L26.9222 5.31112ZM0.416667 7.23334C0.166667 7.32778 0 7.56667 0 7.83334C0 8.10001 0.166667 8.3389 0.416667 8.43334L3.55556 9.61112L4.73333 12.75C4.82778 13 5.06667 13.1667 5.33333 13.1667C5.6 13.1667 5.83889 13 5.93333 12.75L7.11111 9.61112L10.25 8.43334C10.5 8.3389 10.6667 8.10001 10.6667 7.83334C10.6667 7.56667 10.5 7.32778 10.25 7.23334L7.11111 6.05556L5.93333 2.91667C5.83889 2.66667 5.6 2.50001 5.33333 2.50001C5.06667 2.50001 4.82778 2.66667 4.73333 2.91667L3.55556 6.05556L0.416667 7.23334ZM19.9722 21.4556C19.7222 21.55 19.5556 21.7889 19.5556 22.0556C19.5556 22.3222 19.7222 22.5611 19.9722 22.6556L23.1111 23.8333L24.2889 26.9722C24.3833 27.2222 24.6222 27.3889 24.8889 27.3889C25.1556 27.3889 25.3944 27.2222 25.4889 26.9722L26.6667 23.8333L29.8056 22.6556C30.0556 22.5611 30.2222 22.3222 30.2222 22.0556C30.2222 21.7889 30.0556 21.55 29.8056 21.4556L26.6667 20.2778L25.4889 17.1389C25.3944 16.8889 25.1556 16.7222 24.8889 16.7222C24.6222 16.7222 24.3833 16.8889 24.2889 17.1389L23.1111 20.2778L19.9722 21.4556Z" fill="black"/>
</svg>
