<svg width="33" height="26" viewBox="0 0 33 26" fill="none" xmlns="http://www.w3.org/2000/svg">
<g clip-path="url(#clip0_205_781)">
<path d="M5.8626 19.6421C6.05571 19.449 6.32123 19.3364 6.60285 19.3364H32.1417C32.6084 19.3364 32.8417 19.8996 32.5118 20.2295L27.4668 25.2745C27.2737 25.4676 27.0082 25.5803 26.7266 25.5803H1.18772C0.721032 25.5803 0.48769 25.017 0.817587 24.6871L5.8626 19.6421Z" fill="#171827"/>
<path d="M5.8626 0.80582C6.06375 0.612709 6.32928 0.500061 6.60285 0.500061H32.1417C32.6084 0.500061 32.8417 1.0633 32.5118 1.3932L27.4668 6.43822C27.2737 6.63133 27.0082 6.74397 26.7266 6.74397H1.18772C0.721032 6.74397 0.48769 6.18073 0.817587 5.85084L5.8626 0.80582Z" fill="#171827"/>
<path d="M27.4668 10.1636C27.2737 9.9705 27.0082 9.85785 26.7266 9.85785H1.18772C0.721032 9.85785 0.48769 10.4211 0.817587 10.751L5.8626 15.796C6.05571 15.9891 6.32123 16.1018 6.60285 16.1018H32.1417C32.6084 16.1018 32.8417 15.5385 32.5118 15.2086L27.4668 10.1636Z" fill="#171827"/>
</g>
<defs>
<clipPath id="clip0_205_781">
<rect width="32" height="25.0803" fill="white" transform="translate(0.666504 0.5)"/>
</clipPath>
</defs>
</svg>
