<svg width="32" height="33" viewBox="0 0 32 33" fill="none" xmlns="http://www.w3.org/2000/svg">
<path d="M16.7395 13.975L0.770703 29.9375C0.183203 30.525 0.183203 31.475 0.770703 32.0562C1.3582 32.6375 2.3082 32.6437 2.88945 32.0562L7.56445 27.3813C8.02695 27.6688 8.5207 27.8938 9.05195 28.0375C11.852 28.8 16.2082 28.9062 20.4582 26.0875C21.2207 25.5812 20.8207 24.5 19.9082 24.5H18.902C18.5832 24.5 18.327 24.2437 18.327 23.925C18.327 23.6687 18.4957 23.45 18.7332 23.375L24.8395 21.5438C25.052 21.4813 25.2395 21.35 25.3645 21.1625C25.6395 20.7625 25.902 20.3563 26.152 19.9375C26.5395 19.2938 26.0582 18.5 25.3082 18.5H22.8957C22.577 18.5 22.3207 18.2437 22.3207 17.925C22.3207 17.6687 22.4895 17.45 22.727 17.375L27.7832 15.8563C28.0707 15.7688 28.3082 15.5563 28.4207 15.275C30.2395 10.6875 31.0707 5.88125 31.327 2.8C31.377 2.18125 31.1395 1.575 30.702 1.1375C30.2645 0.700001 29.6582 0.462501 29.0395 0.512501C23.802 0.937501 13.6145 3.03125 7.9207 8.725C2.91445 13.7313 2.87695 19.3937 3.78945 22.775C3.9207 23.2687 4.53945 23.375 4.90195 23.0125L15.1832 12.7375C15.5707 12.35 16.2082 12.35 16.5957 12.7375C16.9332 13.075 16.977 13.5875 16.7332 13.975H16.7395Z" fill="black"/>
</svg>
