<svg width="33" height="33" viewBox="0 0 33 33" fill="none" xmlns="http://www.w3.org/2000/svg">
<g clip-path="url(#clip0_227_902)">
<path d="M29.2106 9.79756C29.2309 10.0818 29.2309 10.3661 29.2309 10.6504C29.2309 19.3204 22.632 29.3102 10.5711 29.3102C6.85531 29.3102 3.40356 28.2341 0.5 26.3661C1.02794 26.427 1.5355 26.4473 2.08375 26.4473C5.14969 26.4473 7.97206 25.4118 10.2259 23.6453C7.34262 23.5844 4.92637 21.6961 4.09387 19.0971C4.5 19.1579 4.90606 19.1986 5.3325 19.1986C5.92131 19.1986 6.51019 19.1173 7.05837 18.9752C4.05331 18.3661 1.79944 15.7265 1.79944 12.5387V12.4575C2.6725 12.9448 3.68781 13.2494 4.76388 13.2899C2.99738 12.1122 1.84006 10.1021 1.84006 7.828C1.84006 6.60975 2.16488 5.493 2.73344 4.51837C5.96187 8.49806 10.8147 11.097 16.2563 11.3813C16.1548 10.894 16.0938 10.3864 16.0938 9.87881C16.0938 6.26456 19.0177 3.32043 22.6522 3.32043C24.5405 3.32043 26.2461 4.11231 27.4441 5.3915C28.9263 5.10725 30.3476 4.559 31.6065 3.80775C31.1191 5.33062 30.0836 6.60981 28.7232 7.42193C30.0431 7.27987 31.3222 6.91431 32.4999 6.40675C31.6066 7.70618 30.4898 8.8635 29.2106 9.79756Z" fill="white"/>
</g>
<defs>
<clipPath id="clip0_227_902">
<rect width="32" height="32" fill="white" transform="translate(0.5 0.320435)"/>
</clipPath>
</defs>
</svg>
