<svg width="33" height="33" viewBox="0 0 33 33" fill="none" xmlns="http://www.w3.org/2000/svg">
<g clip-path="url(#clip0_227_912)">
<path d="M17 1.32043C8.43956 1.32043 1.5 8.26 1.5 16.8204C1.5 25.3809 8.43956 32.3204 17 32.3204C25.5604 32.3204 32.5 25.3809 32.5 16.8204C32.5 8.26 25.5604 1.32043 17 1.32043ZM24.1845 11.8617C23.9513 14.3126 22.9419 20.2603 22.4282 23.0054C22.211 24.1669 21.7831 24.5564 21.369 24.5945C20.469 24.6774 19.7854 23.9997 18.9136 23.4282C17.5494 22.5339 16.7787 21.9772 15.4544 21.1046C13.9241 20.0962 14.9162 19.5421 15.7883 18.6359C16.0166 18.3988 19.9825 14.7915 20.0592 14.4642C20.0688 14.4233 20.078 14.2705 19.9871 14.1902C19.8962 14.11 19.7628 14.1372 19.6662 14.159C19.5294 14.1901 17.3501 15.6305 13.1282 18.4804C12.5096 18.9051 11.9494 19.1121 11.4473 19.1012C10.8939 19.0893 9.82931 18.7884 9.03788 18.5311C8.06719 18.2156 7.29569 18.0487 7.36287 17.5129C7.39787 17.2337 7.78225 16.9483 8.516 16.6566C13.0346 14.688 16.0477 13.39 17.5553 12.7629C21.8598 10.9724 22.7542 10.6614 23.3372 10.6511C23.4654 10.6489 23.7521 10.6807 23.9378 10.8314C24.0613 10.9387 24.1401 11.0885 24.1584 11.2511C24.1899 11.453 24.1986 11.6578 24.1845 11.8617Z" fill="white"/>
</g>
<defs>
<clipPath id="clip0_227_912">
<rect width="32" height="32" fill="white" transform="translate(0.5 0.320435)"/>
</clipPath>
</defs>
</svg>
