<svg width="11" height="11" viewBox="0 0 11 11" fill="none" xmlns="http://www.w3.org/2000/svg">
<path d="M10.2086 1.70859C10.5992 1.31797 10.5992 0.683594 10.2086 0.292969C9.81797 -0.0976562 9.18359 -0.0976562 8.79297 0.292969L5.50234 3.58672L2.20859 0.296094C1.81797 -0.0945313 1.18359 -0.0945313 0.792969 0.296094C0.402344 0.686719 0.402344 1.32109 0.792969 1.71172L4.08672 5.00234L0.796094 8.29609C0.405469 8.68672 0.405469 9.32109 0.796094 9.71172C1.18672 10.1023 1.82109 10.1023 2.21172 9.71172L5.50234 6.41797L8.79609 9.70859C9.18672 10.0992 9.82109 10.0992 10.2117 9.70859C10.6023 9.31797 10.6023 8.68359 10.2117 8.29297L6.91797 5.00234L10.2086 1.70859Z" fill="white"/>
</svg>
